<svg width="56" height="56" viewBox="0 0 56 56" fill="none" xmlns="http://www.w3.org/2000/svg">
<rect width="56" height="56" rx="11" fill="#F6F6F6"/>
<path d="M37.4701 27.185L36.4401 25.755C36.2095 25.4312 35.9051 25.1671 35.5521 24.9844C35.199 24.8018 34.8075 24.706 34.4101 24.705H30.0301V22.565C30.0301 21.902 29.7667 21.2661 29.2978 20.7972C28.829 20.3284 28.1931 20.065 27.5301 20.065H20.5601C19.8976 20.0668 19.2628 20.3308 18.7943 20.7993C18.3259 21.2677 18.0619 21.9025 18.0601 22.565V32.505C18.0601 32.9028 18.2181 33.2844 18.4994 33.5657C18.7807 33.847 19.1622 34.005 19.5601 34.005H20.7801C20.8556 34.54 21.1218 35.0298 21.5297 35.3842C21.9376 35.7385 22.4597 35.9337 23.0001 35.9337C23.5404 35.9337 24.0626 35.7385 24.4705 35.3842C24.8784 35.0298 25.1445 34.54 25.2201 34.005H30.7801C30.8556 34.54 31.1218 35.0298 31.5297 35.3842C31.9376 35.7385 32.4597 35.9337 33.0001 35.9337C33.5404 35.9337 34.0626 35.7385 34.4705 35.3842C34.8784 35.0298 35.1445 34.54 35.2201 34.005H36.4401C36.8379 34.005 37.2194 33.847 37.5007 33.5657C37.782 33.2844 37.9401 32.9028 37.9401 32.505V28.635C37.9376 28.1146 37.7734 27.6079 37.4701 27.185ZM23.0001 34.935C22.7528 34.935 22.5112 34.8617 22.3056 34.7243C22.1 34.587 21.9398 34.3918 21.8452 34.1634C21.7506 33.9349 21.7258 33.6836 21.7741 33.4411C21.8223 33.1987 21.9414 32.9759 22.1162 32.8011C22.291 32.6263 22.5137 32.5073 22.7562 32.459C22.9987 32.4108 23.25 32.4355 23.4784 32.5302C23.7068 32.6248 23.902 32.785 24.0394 32.9905C24.1767 33.1961 24.2501 33.4378 24.2501 33.685C24.2501 34.0165 24.1184 34.3345 23.8839 34.5689C23.6495 34.8033 23.3316 34.935 23.0001 34.935ZM29.0301 33.005H25.1501C25.0045 32.5491 24.7177 32.1513 24.3313 31.8691C23.9448 31.5868 23.4786 31.4347 23.0001 31.4347C22.5215 31.4347 22.0553 31.5868 21.6689 31.8691C21.2824 32.1513 20.9957 32.5491 20.8501 33.005H19.5601C19.4275 33.005 19.3003 32.9523 19.2065 32.8586C19.1127 32.7648 19.0601 32.6376 19.0601 32.505V22.565C19.0601 22.1672 19.2181 21.7856 19.4994 21.5043C19.7807 21.223 20.1622 21.065 20.5601 21.065H27.5301C27.9279 21.065 28.3094 21.223 28.5907 21.5043C28.872 21.7856 29.0301 22.1672 29.0301 22.565V33.005ZM33.0001 34.935C32.7528 34.935 32.5112 34.8617 32.3056 34.7243C32.1 34.587 31.9398 34.3918 31.8452 34.1634C31.7506 33.9349 31.7258 33.6836 31.7741 33.4411C31.8223 33.1987 31.9414 32.9759 32.1162 32.8011C32.291 32.6263 32.5137 32.5073 32.7562 32.459C32.9987 32.4108 33.25 32.4355 33.4784 32.5302C33.7068 32.6248 33.902 32.785 34.0394 32.9905C34.1767 33.1961 34.2501 33.4378 34.2501 33.685C34.2501 34.0165 34.1184 34.3345 33.8839 34.5689C33.6495 34.8033 33.3316 34.935 33.0001 34.935ZM36.9401 32.505C36.9401 32.6376 36.8874 32.7648 36.7936 32.8586C36.6998 32.9523 36.5727 33.005 36.4401 33.005H35.1501C35.0045 32.5491 34.7177 32.1513 34.3313 31.8691C33.9448 31.5868 33.4786 31.4347 33.0001 31.4347C32.5215 31.4347 32.0553 31.5868 31.6689 31.8691C31.2824 32.1513 30.9957 32.5491 30.8501 33.005H30.0301V25.705H34.4101C34.6486 25.7066 34.8835 25.7645 35.0955 25.874C35.3075 25.9834 35.4906 26.1414 35.6301 26.335L36.6601 27.765C36.84 28.0196 36.9377 28.3232 36.9401 28.635V32.505Z" fill="#797979"/>
<path d="M34.0291 28.205H32.0291C31.8964 28.205 31.7693 28.1523 31.6755 28.0586C31.5817 27.9648 31.5291 27.8376 31.5291 27.705C31.5291 27.5724 31.5817 27.4452 31.6755 27.3515C31.7693 27.2577 31.8964 27.205 32.0291 27.205H34.0291C34.1617 27.205 34.2888 27.2577 34.3826 27.3515C34.4764 27.4452 34.5291 27.5724 34.5291 27.705C34.5291 27.8376 34.4764 27.9648 34.3826 28.0586C34.2888 28.1523 34.1617 28.205 34.0291 28.205Z" fill="#797979"/>
</svg>
