<svg width="96" height="32" viewBox="0 0 96 32" fill="none" xmlns="http://www.w3.org/2000/svg">
<path d="M30.3022 12.8869H28.0337L28.2504 9.99689H36.2704L36.1259 12.8869H33.8138L33.9583 22.0629H30.3022V12.8869Z" fill="#81BEF8"/>
<path fill-rule="evenodd" clip-rule="evenodd" d="M43.712 19.3896L44.001 21.8461C39.3462 22.7826 37.5238 22.333 36.7036 18.5226L36.6313 16.4273C36.8481 12.6702 38.5073 12.6672 40.8219 12.4534C43.4324 12.4505 44.0369 13.2988 44.4345 15.488C44.5255 16.5885 44.5221 17.205 44.4345 18.3058H39.8104C39.869 19.8592 40.8055 20.035 43.712 19.3896ZM39.8104 16.644C39.5214 14.6932 41.7612 14.91 41.5445 16.644H39.8104Z" fill="#81BEF8"/>
<path d="M48.6253 12.4534C50.0792 12.3343 50.6113 12.4985 51.4431 12.8869L51.2986 14.332L51.1541 15.8492C50.7725 15.5086 50.5287 15.4235 49.3478 15.3435C48.7146 15.4731 48.6624 15.6648 48.5542 16.0618L48.5531 16.066V18.7393C48.5531 19.3896 48.7396 19.4611 49.0588 19.4618C49.797 19.5212 50.2092 19.5945 50.9374 19.3896L51.2986 21.7739C50.7206 22.0629 50.4316 22.1351 49.7091 22.3519H48.4086C46.3246 21.9498 45.4463 20.1843 45.3018 18.7393V17.511V16.355C45.5908 13.6817 46.4058 12.8618 48.6253 12.4534Z" fill="#81BEF8"/>
<path d="M52.1655 9.49109V22.0629H55.3446V15.777C55.9091 15.4163 56.225 15.3253 56.7896 15.777V22.0629H60.0409V14.1874C60.0409 12.3089 56.9504 11.726 55.3446 13.4649V9.49109H52.1655Z" fill="#81BEF8"/>
<path d="M69.0726 9.92462H60.9082V13.0314H64.8098L61.2695 20.2566V22.1351H69.2894V19.3173H65.7491L69.0726 12.0199V9.92462Z" fill="#81BEF8"/>
<path d="M82.222 12.6701H79.043V22.1351H82.4388V15.7047C82.9466 15.4018 83.2314 15.3693 83.7393 15.7047V22.1351H86.9906V14.0429C86.9906 12.4534 84.2089 11.8116 82.222 13.4649V12.6701Z" fill="#81BEF8"/>
<path fill-rule="evenodd" clip-rule="evenodd" d="M88.0747 13.1759C89.9592 12.6226 91.0532 12.4066 93.2045 12.5257C94.7166 12.7467 94.9166 13.2645 95.1553 14.2597C95.3365 16.2599 95.2997 17.4052 95.1553 19.4618C95.329 19.8513 95.5163 19.9063 95.9501 19.8231L95.6611 22.2074C94.8071 22.3807 94.3784 22.341 93.638 22.2074C92.8631 21.8789 92.7081 21.6666 92.6265 21.2681C92.2152 21.9103 91.7991 22.0969 90.8202 22.2074C90.3367 22.3146 90.0609 22.3536 89.5197 22.2074C88.2401 21.764 88.1288 21.1709 87.9305 20.1137L87.9302 20.1121V18.8838C88.1533 16.6598 90.1489 16.7801 92.1208 16.4995C92.1765 16.1616 92.1803 15.958 92.1208 15.5602C91.858 15.3928 91.6784 15.3754 91.326 15.4157C90.17 15.494 89.5965 15.6692 88.5804 15.9937L88.0747 13.1759ZM92.1208 19.6063V18.378C91.4 18.3875 91.1092 18.4503 90.9647 19.1728C91.0004 19.6834 90.8852 19.7775 91.4705 19.9676C91.7518 19.9786 91.9009 20.0667 92.1208 19.6063Z" fill="#81BEF8"/>
<path fill-rule="evenodd" clip-rule="evenodd" d="M75.0691 12.5256C77.2815 13.0399 77.5633 13.9714 77.9591 15.7047C78.0842 16.9288 78.0329 17.5498 77.9591 18.667C77.6965 21.3423 76.8089 21.6859 75.2136 22.2796C74.2176 22.4683 73.7341 22.4475 72.9738 22.2796C70.476 21.3997 70.261 20.3253 69.9392 18.378C69.8468 17.5315 69.8732 17.057 69.9392 16.2105C70.3321 13.9913 70.8704 13.0842 72.8293 12.5256C73.7846 12.3427 74.3566 12.3937 75.0691 12.5256ZM73.2628 15.7047V19.0283C73.2628 19.9676 74.6356 20.2566 74.7078 19.0283C74.7801 17.8 74.7078 16.644 74.7078 15.7047C74.7078 14.7655 73.2628 14.7655 73.2628 15.7047Z" fill="#81BEF8"/>
<g clip-path="url(#clip0_1_671)">
<path d="M24.1018 21.9251L22.462 10.4644C22.3189 9.46492 21.8195 8.54672 21.0558 7.87899C20.2845 7.20463 19.2949 6.83325 18.2693 6.83325C16.8177 6.83325 15.4678 7.58103 14.6933 8.79954H9.43872C8.66414 7.58103 7.31434 6.83325 5.86273 6.83325C4.83707 6.83325 3.84751 7.20463 3.07621 7.87899C2.31251 8.54672 1.81308 9.46492 1.67003 10.4644L0.0301393 21.9251C0.0101149 22.0649 0 22.2067 0 22.3465C0 23.9744 1.32438 25.2988 2.95231 25.2988C4.17067 25.2988 5.28002 24.5335 5.7128 23.3946L7.15861 19.5883C7.50709 19.8606 7.94501 20.0235 8.42056 20.0235C9.23093 20.0235 9.93302 19.5516 10.2669 18.8682H13.8651C14.199 19.5516 14.9011 20.0235 15.7114 20.0235C16.1869 20.0235 16.6249 19.8606 16.9734 19.5883L18.4193 23.3946C18.852 24.5336 19.9613 25.2988 21.1797 25.2988C22.8076 25.2988 24.132 23.9744 24.132 22.3465C24.132 22.2067 24.1218 22.0649 24.1018 21.9251ZM8.42051 19.2533C7.71273 19.2533 7.1369 18.6775 7.1369 17.9697C7.1369 17.2619 7.71273 16.6861 8.42051 16.6861C9.12829 16.6861 9.70412 17.2619 9.70412 17.9697C9.70412 18.6775 9.12829 19.2533 8.42051 19.2533ZM15.7114 19.2533C15.0037 19.2533 14.4278 18.6775 14.4278 17.9697C14.4278 17.2619 15.0037 16.6861 15.7114 16.6861C16.4192 16.6861 16.9951 17.2619 16.9951 17.9697C16.9951 18.6775 16.4192 19.2533 15.7114 19.2533ZM21.1796 24.5286C20.2791 24.5286 19.459 23.9629 19.1392 23.1211L17.5382 18.9064C17.683 18.6253 17.7652 18.307 17.7652 17.9697C17.7652 16.8372 16.8439 15.9159 15.7114 15.9159C14.579 15.9159 13.6577 16.8372 13.6577 17.9697C13.6577 18.0128 13.6595 18.0555 13.6621 18.098H10.4699C10.4725 18.0555 10.4743 18.0128 10.4743 17.9697C10.4743 16.8372 9.55297 15.9159 8.42051 15.9159C7.28805 15.9159 6.36673 16.8372 6.36673 17.9697C6.36673 18.307 6.44898 18.6253 6.59372 18.9064L4.9928 23.1211C4.67292 23.9629 3.8529 24.5286 2.95231 24.5286C1.74905 24.5286 0.770169 23.5497 0.770169 22.3465C0.770169 22.2431 0.777665 22.138 0.792606 22.0342L0.863616 21.5381L4.16158 22.226C4.18813 22.2316 4.21452 22.2343 4.2406 22.2343C4.41913 22.2343 4.57927 22.1094 4.61716 21.9277C4.6606 21.7195 4.527 21.5155 4.3188 21.4721L0.972928 20.7742L2.08731 12.9861C2.78816 14.3608 4.21683 15.3051 5.86278 15.3051C8.19844 15.3051 10.0987 13.4048 10.0987 11.0691C10.0987 10.9428 10.0931 10.8155 10.082 10.6908C10.0632 10.4789 9.87623 10.3227 9.66433 10.3413C9.45249 10.3601 9.29604 10.5471 9.31483 10.759C9.32392 10.8611 9.32854 10.9654 9.32854 11.0691C9.32854 12.9802 7.77383 14.5349 5.86278 14.5349C3.95174 14.5349 2.39702 12.9802 2.39702 11.0691C2.39702 11.028 2.39045 10.9884 2.37849 10.9512L2.43255 10.5735C2.67485 8.88026 4.14951 7.60337 5.86283 7.60337C7.11297 7.60337 8.27099 8.28158 8.88502 9.37337C8.95321 9.49465 9.08152 9.56966 9.22066 9.56966H14.9115C15.0506 9.56966 15.1789 9.49465 15.2471 9.37337C15.8612 8.28158 17.0192 7.60337 18.2693 7.60337C19.9826 7.60337 21.4573 8.88026 21.6996 10.5735L21.7537 10.9512C21.7417 10.9884 21.7351 11.028 21.7351 11.0691C21.7351 12.9802 20.1804 14.5349 18.2694 14.5349C16.3583 14.5349 14.8036 12.9802 14.8036 11.0691C14.8036 10.9655 14.8082 10.8611 14.8173 10.759C14.8361 10.5471 14.6797 10.3601 14.4678 10.3413C14.2569 10.3226 14.069 10.4789 14.0501 10.6908C14.039 10.8155 14.0334 10.9428 14.0334 11.0691C14.0334 13.4048 15.9337 15.3051 18.2694 15.3051C19.9153 15.3051 21.344 14.3608 22.0448 12.9861L23.1592 20.7742L19.8134 21.4722C19.6052 21.5156 19.4717 21.7195 19.515 21.9278C19.5529 22.1095 19.713 22.2343 19.8916 22.2343C19.9177 22.2343 19.9441 22.2316 19.9706 22.2261L23.2685 21.5381L23.3395 22.0342C23.3544 22.138 23.362 22.2431 23.362 22.3465C23.3618 23.5497 22.3829 24.5286 21.1796 24.5286Z" fill="#81BEF8"/>
<path d="M7.65987 10.684H6.24789V9.27205C6.24789 9.05938 6.07553 8.88696 5.86281 8.88696C5.65009 8.88696 5.47772 9.05938 5.47772 9.27205V10.684H4.06575C3.85303 10.684 3.68066 10.8564 3.68066 11.0691C3.68066 11.2818 3.85303 11.4542 4.06575 11.4542H5.47772V12.8662C5.47772 13.0788 5.65009 13.2513 5.86281 13.2513C6.07553 13.2513 6.24789 13.0788 6.24789 12.8662V11.4542H7.65987C7.87259 11.4542 8.04495 11.2818 8.04495 11.0691C8.04495 10.8564 7.87254 10.684 7.65987 10.684Z" fill="#81BEF8"/>
<path d="M18.2691 13.2513C19.4723 13.2513 20.4512 12.2724 20.4512 11.0691C20.4512 9.86585 19.4723 8.88696 18.2691 8.88696C17.0658 8.88696 16.0869 9.86585 16.0869 11.0691C16.0869 12.2724 17.0658 13.2513 18.2691 13.2513ZM18.2691 9.65713C19.0476 9.65713 19.681 10.2905 19.681 11.0691C19.681 11.8477 19.0476 12.4811 18.2691 12.4811C17.4905 12.4811 16.8571 11.8477 16.8571 11.0691C16.8571 10.2905 17.4905 9.65713 18.2691 9.65713Z" fill="#81BEF8"/>
<path d="M12.671 16.5577H11.4613C11.2485 16.5577 11.0762 16.7302 11.0762 16.9428C11.0762 17.1555 11.2485 17.3279 11.4613 17.3279H12.671C12.8838 17.3279 13.0561 17.1555 13.0561 16.9428C13.0561 16.7302 12.8837 16.5577 12.671 16.5577Z" fill="#81BEF8"/>
</g>
<defs>
<clipPath id="clip0_1_671">
<rect width="24.132" height="24.132" fill="white" transform="translate(0 4)"/>
</clipPath>
</defs>
</svg>
